<?xml version="1.0" encoding="UTF-8" standalone="no"?>
<svg
   xmlns:dc="http://purl.org/dc/elements/1.1/"
   xmlns:cc="http://creativecommons.org/ns#"
   xmlns:rdf="http://www.w3.org/1999/02/22-rdf-syntax-ns#"
   xmlns:svg="http://www.w3.org/2000/svg"
   xmlns="http://www.w3.org/2000/svg"
   xmlns:sodipodi="http://sodipodi.sourceforge.net/DTD/sodipodi-0.dtd"
   xmlns:inkscape="http://www.inkscape.org/namespaces/inkscape"
   width="180.23763"
   height="102.53741"
   version="1.1"
   viewBox="0 0 180.23763 102.53741"
   id="svg4342"
   inkscape:version="0.91pre2+osxmenu r12795"
   sodipodi:docname="logo_bottom.svg">
  <metadata
     id="metadata4362">
    <rdf:RDF>
      <cc:Work
         rdf:about="">
        <dc:format>image/svg+xml</dc:format>
        <dc:type
           rdf:resource="http://purl.org/dc/dcmitype/StillImage" />
        <dc:title />
      </cc:Work>
    </rdf:RDF>
  </metadata>
  <defs
     id="defs4360" />
  <sodipodi:namedview
     pagecolor="#ffffff"
     bordercolor="#666666"
     borderopacity="1"
     objecttolerance="10"
     gridtolerance="10"
     guidetolerance="10"
     inkscape:pageopacity="0"
     inkscape:pageshadow="2"
     inkscape:window-width="1280"
     inkscape:window-height="751"
     id="namedview4358"
     showgrid="false"
     inkscape:zoom="5.6568542"
     inkscape:cx="36.364238"
     inkscape:cy="62.829753"
     inkscape:window-x="0"
     inkscape:window-y="23"
     inkscape:window-maximized="0"
     inkscape:current-layer="g4956"
     fit-margin-top="0"
     fit-margin-left="0"
     fit-margin-right="0"
     fit-margin-bottom="0">
    <inkscape:grid
       type="xygrid"
       id="grid4904"
       empspacing="4"
       dotted="false"
       originx="-109.48262px"
       originy="-110.72674px" />
  </sodipodi:namedview>
  <g
     transform="translate(-128.48262,-625.73585)"
     id="g4344">
    <g
       transform="matrix(1.5,0,0,1.5,-35.5,-407.18115)"
       id="g4346">
      <g
         id="g4943"
         transform="translate(59.813475,-5.8239044)">
        <g
           id="g4956"
           transform="translate(2.1258719e-7,1.3334296)">
          <path
             style="opacity:0.5;fill:#ff1122"
             d="M 95.453125,-0.04101562 C 91.921544,-0.05585666 78.968271,0.90072364 72.681641,1.3574219 c 11.24767,0.9928733 22.310097,2.5969585 23.52539,5.0527343 2.4,4.8497398 -16.799218,46.4178388 -19.199219,51.2675778 -0.596339,1.20504 -2.385871,4.592814 -4.800781,8.986328 7.304122,13.288537 20.392845,35.873048 24,35.873048 3.463499,0 15.606009,-20.728098 23.039059,-34.150391 -7.02088,-6.771855 -10.99281,-16.102907 -11.00781,-25.857422 0,-19.881605 16.11671,-35.9989394 35.99805,-36.0000001 l 0.002,0 0.004,0 c -0.0143,-0.036076 -0.0189,-0.088344 -0.0352,-0.1210938 C 141.80703,1.5584633 101.00703,0 96.207031,0 96.085815,-0.02679005 95.827273,-0.03944331 95.453125,-0.04101562 Z M 72.681641,1.3574219 c -0.159017,-0.014037 -0.315546,-0.03113 -0.47461,-0.044922 -5.20527,0.4526684 -3.229178,0.3139871 0.47461,0.044922 z"
             transform="matrix(0.66666669,0,0,0.66666669,49.508271,693.10181)"
             id="path4350"
             inkscape:connector-curvature="0"
             sodipodi:nodetypes="scsscscccccccsccc" />
          <path
             style="opacity:0.5;fill:#1188ff"
             d="M 144.24219 6.5292969 C 146.34175 11.829862 127.39181 52.860335 125.00781 57.677734 C 124.33962 59.027959 122.1139 63.207894 119.24609 68.386719 C 112.22521 61.614864 108.25328 52.283812 108.23828 42.529297 C 108.23828 62.411541 124.35602 78.529297 144.23828 78.529297 C 164.12053 78.529297 180.23828 62.411541 180.23828 42.529297 C 180.23828 22.648362 164.12263 6.5314206 144.24219 6.5292969 z "
             transform="matrix(0.66666669,0,0,0.66666669,49.508271,693.10181)"
             id="path4352" />
          <path
             style="opacity:0.5;fill:#885588;fill-opacity:1"
             d="m 145.66668,697.45407 c -13.25483,0 -24,10.74516 -24,24 0.01,6.50301 2.65795,12.72371 7.33854,17.23828 1.91187,-3.45255 3.39569,-6.23917 3.84115,-7.13932 1.58933,-3.2116 14.22263,-30.56525 12.82292,-34.09896 l -0.003,0 z"
             id="path4923"
             inkscape:connector-curvature="0"
             sodipodi:nodetypes="cccsccc" />
          <g
             style="font-style:normal;font-variant:normal;font-weight:normal;font-stretch:normal;font-size:34.3000679px;line-height:125%;font-family:'Gill Sans';-inkscape-font-specification:'Gill Sans';letter-spacing:0.83999997px;word-spacing:0px;opacity:0.5;fill:#000000;fill-opacity:1;stroke:none;stroke-width:1px;stroke-linecap:butt;stroke-linejoin:miter;stroke-opacity:1"
             id="text4931" />
          <path
             style="opacity:0.5;fill:#ff7733;fill-opacity:1"
             d="m 97.645847,693.97623 c -7.6063,0.65957 -15.178393,1.73819 -16.000003,3.39843 -1.6,3.23316 11.200783,30.94523 12.800783,34.17839 0.39754,0.80331 1.58946,3.06217 3.19922,5.99088 1.60994,-2.92901 2.802963,-5.18752 3.200523,-5.99088 1.6,-3.23316 14.39948,-30.94523 12.79948,-34.17839 -0.82165,-1.66033 -8.39326,-2.73887 -16.000003,-3.39843 z"
             id="path4335"
             inkscape:connector-curvature="0"
             sodipodi:nodetypes="csscssc" />
          <path
             style="opacity:0.5;fill:#eedd33;fill-opacity:1"
             d="M 48.960938 -0.041015625 C 48.586793 -0.039515625 48.328231 -0.026849999 48.207031 0 C 43.407031 0 2.6071302 1.5584633 0.20703125 6.4082031 C 0.19072625 6.4409031 0.186125 6.4932969 0.171875 6.5292969 C -1.9276899 11.829862 17.022255 52.860335 19.40625 57.677734 C 20.07444 59.027959 22.300164 63.207894 25.167969 68.386719 C 32.601024 81.809003 44.743531 102.53711 48.207031 102.53711 C 51.814186 102.53711 64.902901 79.952592 72.207031 66.664062 C 69.792121 62.270548 68.002575 58.882774 67.40625 57.677734 C 65.006235 52.827995 45.807031 11.259896 48.207031 6.4101562 C 49.422316 3.9543713 60.484747 2.3502868 71.732422 1.3574219 C 65.445787 0.90071689 52.492522 -0.056015625 48.960938 -0.041015625 z M 71.732422 1.3574219 C 75.436207 1.6265519 77.412333 1.76517 72.207031 1.3125 C 72.047956 1.32615 71.891437 1.3439219 71.732422 1.3574219 z "
             transform="matrix(0.66666669,0,0,0.66666669,49.508271,693.10181)"
             id="path4347" />
        </g>
      </g>
    </g>
  </g>
</svg>
