<svg version="1" xmlns="http://www.w3.org/2000/svg" width="933.333" height="933.333" viewBox="0 0 700.000000 700.000000"><path d="M162 .6c-18.1 1.7-31.4 4.6-46.5 10.1C60.9 30.3 18.7 77.3 5.1 133.5.4 153.3.5 146.8.5 350S.4 546.7 5.1 566.5c15.2 62.6 65.8 113.2 128.4 128.4 19.8 4.7 13.3 4.6 216.5 4.6s196.7.1 216.5-4.6c62.6-15.2 113.2-65.8 128.4-128.4 4.7-19.8 4.6-13.3 4.6-216.5s.1-196.7-4.6-216.5c-15-62-65.1-112.5-126.9-128C547.6.3 558.8.6 355 .4 250.8.4 163.9.4 162 .6zm315.5 111.6c21.2 6 37.1 21.7 44.9 44.3 2 6 2.1 7.3 2.6 179.5.5 159 .6 173.8 2.2 176.5 10.6 19.5 37.6 14.7 41.3-7.3.4-2.3.8-4.2.9-4.2.1 0 8.9.9 19.6 2 10.7 1.1 20.2 2 21.2 2 4 0 1.3 14.1-5.2 27.8-7.2 15.2-22.7 28-40.2 33.3-10.2 3-26.4 3-36.3-.1-21.6-6.7-37.3-22.4-44.7-44.5l-2.3-7-.3-138.8-.3-138.7-2.7.6c-1.5.4-3.7 1.1-5 1.5-1.3.5-4.5.9-7.1.9h-4.9l-.8-9.8-.8-9.7-.9 6.5c-1.8 14.2-1.3 13-6.1 13-2.4 0-7.5-.9-11.2-2.1-21.6-6.6-37.8-22.5-44.6-43.6-3.2-9.8-3.2-28.8 0-38.6 3.3-10.5 8.8-19.3 16.8-27.2 17-16.8 40.7-22.9 63.9-16.3zM258 265.1c7.7 2.1 17.6 7 22.9 11.5 3.3 2.7 3.3 2.7 9.6-2.1 9.5-7.2 23.6-11.6 37.5-11.6 29.1 0 53.6 18.2 63.1 46.7l2.3 6.9.3 126.2.4 126.3H350V447.4c0-88.3-.3-122.7-1.1-125.5-2.7-8.9-11.4-15.2-21-15.2-8.7.1-15.2 4.2-19.5 12.3-1.8 3.4-1.9 8.6-2.2 126.8L306 569l-21.8-.2-21.7-.3-.5-124.2-.5-124.1-3.1-4.4c-7.8-10.7-23.8-12.3-32.7-3.2-6.6 6.6-6.1-.8-6.7 105.4l-.5 96.5-2.4 7c-7.3 22.1-23 37.8-44.6 44.5-9.9 3.1-26.1 3.1-36.3.1-17.5-5.3-33-18.1-40.2-33.3-5.4-11.3-7.1-18.5-7.1-29.8 0-11.5 1.8-18.7 7.2-29.8 7.8-16 24.3-29.1 42.4-33.7 5.2-1.3 13.5-2.1 13.5-1.2 0 .2.9 9 2 19.7s2 20.2 2 21.2c0 1.2-1.1 1.9-3.7 2.3-12.3 2.1-19.5 9.9-19.6 21.4-.1 19.4 23 29.1 36.7 15.5 6.5-6.6 6 .8 6.7-105.9.5-96.8.5-97 2.7-103.4 9.1-26.3 29.8-43.2 56.2-46 8.6-.9 14.9-.4 24 2z"/><path d="M454.1 154c-1.8.4-5.2 2.1-7.4 3.6-11.9 8.5-11.7 26.8.5 35 11.1 7.5 25.4 3.9 31.3-7.9 6.2-12.6-.3-26.9-14-30.6-4.5-1.2-5.6-1.2-10.4-.1z"/></svg>