<?xml version="1.0" standalone="no"?><!-- Generator: Gravit.io --><svg xmlns="http://www.w3.org/2000/svg" xmlns:xlink="http://www.w3.org/1999/xlink" style="isolation:isolate" viewBox="0 0 256 64" width="256" height="64"><defs><clipPath id="_clipPath_JDsS7nJUSWbRnPrcfivvP4weyY3hSyws"><rect width="256" height="64"/></clipPath></defs><g clip-path="url(#_clipPath_JDsS7nJUSWbRnPrcfivvP4weyY3hSyws)"><g><rect x="32" y="0" width="64" height="64" transform="matrix(1,0,0,1,0,0)" fill="rgb(74,134,232)"/><path d=" M 86 46 C 86 48.209 84.209 50 82 50 C 79.791 50 78 48.209 78 46 L 78 16 C 78 13.791 76.209 12 74 12 C 71.791 12 70 13.791 70 16 C 70 18.209 71.791 20 74 20 M 78 16 C 78 18.209 76.209 20 74 20 M 66 52 L 66 30 C 66 27.791 64.209 26 62 26 C 59.791 26 58 27.791 58 30 L 58 52 L 58 30 C 58 27.791 56.209 26 54 26 C 51.791 26 50 27.791 50 30 L 50 46 C 50 48.209 48.209 50 46 50 C 43.791 50 42 48.209 42 46 C 42 43.791 43.791 42 46 42" fill="none" vector-effect="non-scaling-stroke" stroke-width="4" stroke="rgb(255,255,255)" stroke-linejoin="miter" stroke-linecap="butt" stroke-miterlimit="4"/></g><g transform="matrix(1,0,0,1,116,0)"><text transform="matrix(1,0,0,1,1.5,43.25)" style="font-family:'Gill Sans';font-weight:400;font-size:24px;font-style:normal;letter-spacing:1;fill:#000000;stroke:#000000;stroke-width:1;">My Invoicing</text></g></g></svg>